<svg width="20" height="20" xmlns="http://www.w3.org/2000/svg"><g clip-path="url(#clip0)" fill="none"><path d="M6.29 18.254c7.548 0 11.675-6.253 11.675-11.675 0-.177-.004-.354-.012-.53A8.344 8.344 0 0 0 20 3.924a8.182 8.182 0 0 1-2.356.646 4.118 4.118 0 0 0 1.804-2.27c-.793.47-1.67.812-2.606.996A4.104 4.104 0 0 0 9.85 7.038a11.65 11.65 0 0 1-8.457-4.287 4.092 4.092 0 0 0-.556 2.063 4.1 4.1 0 0 0 1.826 3.415 4.073 4.073 0 0 1-1.858-.513v.052a4.105 4.105 0 0 0 3.291 4.023 4.108 4.108 0 0 1-1.853.07 4.108 4.108 0 0 0 3.833 2.85A8.232 8.232 0 0 1 .98 16.468c-.331 0-.658-.02-.979-.057a11.615 11.615 0 0 0 6.29 1.843" fill="#fff"/></g><defs><clipPath id="clip0"><path fill="#fff" d="M0 0h20v20H0z"/></clipPath></defs></svg>