<svg width="23" height="23" fill="none" xmlns="http://www.w3.org/2000/svg"><path d="M11.5 7.554a1.395 1.395 0 01-1.973-1.973l3.946-3.946a5.58 5.58 0 017.893 7.892l-3.947 3.946a1.395 1.395 0 11-1.973-1.973l3.946-3.946a2.79 2.79 0 10-3.946-3.946L11.5 7.554zm0 7.892a1.395 1.395 0 011.973 1.973l-3.946 3.947a5.58 5.58 0 01-7.892-7.893L5.58 9.527A1.395 1.395 0 117.554 11.5l-3.946 3.946a2.79 2.79 0 103.946 3.946l3.946-3.946zm3.946-7.892a1.395 1.395 0 010 1.973l-5.919 5.919a1.395 1.395 0 11-1.973-1.973l5.92-5.92a1.395 1.395 0 011.972 0z" fill="#fff"/></svg>