<svg width="131" height="47" viewBox="0 0 131 47" fill="none" xmlns="http://www.w3.org/2000/svg">
<path d="M57.0207 27.2747V30.6145C57.0207 33.3976 56.0448 34.65 53.2565 34.65H51.8623C49.074 34.65 48.0981 33.2584 48.0981 30.6145V15.5855C48.0981 12.8024 49.074 11.55 51.8623 11.55H53.2565C56.0448 11.55 57.0207 12.9416 57.0207 15.5855V18.9253H68.3133V27.2747H57.0207ZM15.1962 27.6922L18.5422 9.32349H19.3787L22.7246 27.6922H15.1962ZM-1.32956e-07 45.2259H11.9897L13.3838 37.4331H24.6764L26.0706 45.2259H38.4785L36.9449 37.8506H37.5026C39.4544 43.2777 43.9157 46.2 51.4441 46.2H52.8382C62.7367 46.2 67.6162 41.0512 67.895 32.2843H68.5921V45.2259H97.451V37.1548H97.8692C100.1 43.2777 104.84 46.2 112.368 46.2H114.041C124.637 46.2 130.213 40.7729 130.213 30.3361V0.974096H117.527V30.8928C117.527 33.3976 116.551 34.7892 113.902 34.7892H112.508C109.719 34.7892 108.883 33.3976 108.883 30.8928V0.974096H96.1962V33.2584H81V0.974096H68.3133V13.9157H67.6162C67.6162 5.42711 63.1549 1.3271e-07 53.117 1.3271e-07H51.1652C40.2909 1.3271e-07 35.4114 5.56627 35.4114 15.5855V30.4753C35.4114 31.0319 35.4114 31.5886 35.4114 32.1452H34.9931L29.2771 0.974096H9.20138L-1.32956e-07 45.2259Z" transform="translate(0.142578 0.399902)" fill="#005AA9"/>
</svg>
