<svg width="39" height="14" viewBox="0 0 39 14" fill="none" xmlns="http://www.w3.org/2000/svg">
<path d="M17.0782 8.26506V9.27711C17.0782 10.1205 16.7859 10.5 15.9507 10.5H15.5332C14.6981 10.5 14.4058 10.0783 14.4058 9.27711V4.72289C14.4058 3.87952 14.6981 3.5 15.5332 3.5H15.9507C16.7859 3.5 17.0782 3.92169 17.0782 4.72289V5.73494H20.4604V8.26506H17.0782ZM4.55139 8.39157L5.55353 2.8253H5.80407L6.80621 8.39157H4.55139ZM-3.98215e-08 13.7048H3.59101L4.00857 11.3434H7.39079L7.80835 13.7048H11.5246L11.0653 11.4699H11.2323C11.8169 13.1145 13.1531 14 15.4079 14H15.8255C18.7901 14 20.2516 12.4398 20.3351 9.78313H20.5439V13.7048H29.1874V11.259H29.3126C29.9807 13.1145 31.4004 14 33.6552 14H34.1563C37.3298 14 39 12.3554 39 9.19277V0.295181H35.2002V9.36145C35.2002 10.1205 34.9079 10.5422 34.1146 10.5422H33.697C32.8619 10.5422 32.6113 10.1205 32.6113 9.36145V0.295181H28.8116V10.0783H24.2602V0.295181H20.4604V4.21687H20.2516C20.2516 1.64458 18.9154 4.02152e-08 15.909 4.02152e-08H15.3244C12.0675 4.02152e-08 10.606 1.68675 10.606 4.72289V9.23494C10.606 9.40361 10.606 9.57229 10.606 9.74096H10.4807L8.76874 0.295181H2.75589L-3.98215e-08 13.7048Z" fill="white"/>
</svg>
